<svg width="78" height="93" viewBox="0 0 78 93" fill="none" xmlns="http://www.w3.org/2000/svg">
<path d="M29.1889 69.1364C29.1867 70.2047 29.3966 71.2628 29.8064 72.2501C30.2161 73.2374 30.8178 74.1344 31.5767 74.8895C32.3356 75.6447 33.2368 76.2432 34.2287 76.6506C35.2206 77.058 36.2835 77.2664 37.3564 77.2637H62.42L75.4977 90.7562L75.5 30.6948C75.5018 29.6269 75.2918 28.5692 74.882 27.5823C74.4723 26.5954 73.8708 25.6988 73.1122 24.9439C72.3535 24.189 71.4526 23.5907 70.4612 23.1833C69.4697 22.7759 68.4072 22.5674 67.3347 22.5698H49.6454V10.5139C49.6466 9.42713 49.4325 8.35079 49.0152 7.34656C48.5978 6.34233 47.9856 5.42995 47.2136 4.66169C46.4415 3.89343 45.5248 3.28439 44.5159 2.86946C43.507 2.45454 42.4258 2.24188 41.3342 2.24367H10.8135C9.72173 2.24158 8.64029 2.45402 7.63115 2.86881C6.62201 3.2836 5.70501 3.8926 4.9327 4.66089C4.1604 5.42918 3.54797 6.34166 3.13052 7.34604C2.71307 8.35041 2.4988 9.42694 2.50001 10.5139L2.50228 71.642L15.8148 57.9112H29.1889V69.1364Z" stroke="#1F2226" stroke-width="4" stroke-linecap="round" stroke-linejoin="round"/>
<path d="M28.4458 57.9063H40.4378C41.5161 57.9087 42.5844 57.695 43.5812 57.2775C44.578 56.8599 45.4839 56.2467 46.2468 55.4729C47.0098 54.6992 47.6148 53.7802 48.0272 52.7686C48.4396 51.7571 48.6513 50.6728 48.6501 49.578V37.3163H54.233C56.9839 37.3163 59.4017 33.7029 57.4612 31.6483L48.6478 22.3189H36.514C35.4546 22.3162 34.405 22.5259 33.4257 22.936C32.4463 23.3462 31.5564 23.9487 30.8069 24.7089C30.0575 25.4691 29.4633 26.3721 29.0585 27.3661C28.6537 28.36 28.4462 29.4254 28.448 30.5009L28.4435 42.9089L19.6257 52.2383C17.6851 54.2952 20.1052 57.9063 22.8516 57.9063H28.394" stroke="#1F2226" stroke-width="4" stroke-linecap="round" stroke-linejoin="round"/>
</svg>
