<svg width="59" height="48" viewBox="0 0 59 48" fill="none" xmlns="http://www.w3.org/2000/svg">
<path d="M29.5002 0.416687C32.0277 0.416616 34.5289 0.889736 36.8521 1.80736C39.1753 2.72499 41.2723 4.06801 43.0157 5.755C44.7591 7.44199 46.1128 9.43781 46.9945 11.6215C47.8763 13.8051 48.2679 16.1311 48.1455 18.4584C51.7101 19.6125 54.7167 21.8923 56.6329 24.8939C58.5491 27.8956 59.2512 31.4256 58.6151 34.8587C57.9789 38.2919 56.0454 41.4068 53.157 43.6518C50.2686 45.8969 46.6115 47.1272 42.8335 47.125H16.1668C12.3888 47.1272 8.73175 45.8969 5.84332 43.6518C2.95489 41.4068 1.02141 38.2919 0.385235 34.8587C-0.250939 31.4256 0.451241 27.8956 2.36744 24.8939C4.28364 21.8923 7.29022 19.6125 10.8548 18.4584C10.7324 16.1311 11.124 13.8051 12.0058 11.6215C12.8875 9.43781 14.2412 7.44199 15.9846 5.755C17.7281 4.06801 19.825 2.72499 22.1482 1.80736C24.4715 0.889736 26.9726 0.416616 29.5002 0.416687ZM29.5002 5.33335C27.6947 5.33338 25.908 5.67146 24.2484 6.32708C22.5889 6.9827 21.0911 7.9422 19.8458 9.14742C18.6006 10.3526 17.6338 11.7784 17.0042 13.3384C16.3745 14.8983 16.0951 16.5599 16.1828 18.2224L16.3695 21.8804L12.6255 23.0948C10.2535 23.8681 8.25416 25.3892 6.98041 27.3893C5.70667 29.3895 5.24045 31.7403 5.66405 34.0265C6.08765 36.3128 7.37383 38.3876 9.29553 39.8847C11.2172 41.3817 13.6509 42.2047 16.1668 42.2084H42.8335C44.7971 42.2078 46.7224 41.7075 48.3973 40.7627C50.0722 39.818 51.4317 38.4653 52.326 36.8538C53.2204 35.2423 53.6149 33.4345 53.466 31.6295C53.3171 29.8246 52.6307 28.0925 51.4823 26.6242C50.334 25.1558 48.7682 24.0082 46.9576 23.3078C45.147 22.6073 43.1618 22.3811 41.2207 22.6542C39.2796 22.9274 37.458 23.6891 35.9564 24.8556C34.4549 26.022 33.3318 27.548 32.7108 29.2652L27.6495 27.7091C28.712 24.7717 30.7503 22.2171 33.4755 20.4072C36.2007 18.5973 39.4747 17.6239 42.8335 17.625C42.8335 14.3651 41.4287 11.2386 38.9282 8.9335C36.4278 6.62837 33.0364 5.33335 29.5002 5.33335Z" fill="#1F2226"/>
</svg>
