<svg width="81" height="74" viewBox="0 0 81 74" fill="none" xmlns="http://www.w3.org/2000/svg">
<g filter="url(#filter0_d_563_706)">
<path d="M25.0835 55.5V52.4167C25.0835 48.3279 26.7077 44.4066 29.5989 41.5154C32.4901 38.6243 36.4114 37 40.5002 37M40.5002 37C44.5889 37 48.5102 38.6243 51.4014 41.5154C54.2926 44.4066 55.9168 48.3279 55.9168 52.4167V55.5M40.5002 37C42.9534 37 45.3062 36.0254 47.0409 34.2907C48.7756 32.556 49.7502 30.2033 49.7502 27.75C49.7502 25.2967 48.7756 22.944 47.0409 21.2093C45.3062 19.4746 42.9534 18.5 40.5002 18.5C38.0469 18.5 35.6941 19.4746 33.9594 21.2093C32.2247 22.944 31.2502 25.2967 31.2502 27.75C31.2502 30.2033 32.2247 32.556 33.9594 34.2907C35.6941 36.0254 38.0469 37 40.5002 37ZM6.5835 55.5V52.4167C6.5835 49.9634 7.55805 47.6106 9.29276 45.8759C11.0275 44.1412 13.3802 43.1667 15.8335 43.1667M15.8335 43.1667C17.469 43.1667 19.0375 42.517 20.194 41.3605C21.3505 40.204 22.0002 38.6355 22.0002 37C22.0002 35.3645 21.3505 33.796 20.194 32.6395C19.0375 31.483 17.469 30.8333 15.8335 30.8333C14.198 30.8333 12.6295 31.483 11.473 32.6395C10.3165 33.796 9.66683 35.3645 9.66683 37C9.66683 38.6355 10.3165 40.204 11.473 41.3605C12.6295 42.517 14.198 43.1667 15.8335 43.1667ZM74.4168 55.5V52.4167C74.4168 49.9634 73.4423 47.6106 71.7076 45.8759C69.9729 44.1412 67.6201 43.1667 65.1668 43.1667M65.1668 43.1667C66.8023 43.1667 68.3708 42.517 69.5273 41.3605C70.6838 40.204 71.3335 38.6355 71.3335 37C71.3335 35.3645 70.6838 33.796 69.5273 32.6395C68.3708 31.483 66.8023 30.8333 65.1668 30.8333C63.5313 30.8333 61.9628 31.483 60.8063 32.6395C59.6499 33.796 59.0002 35.3645 59.0002 37C59.0002 38.6355 59.6499 40.204 60.8063 41.3605C61.9628 42.517 63.5313 43.1667 65.1668 43.1667Z" stroke="#1F2226" stroke-width="4" stroke-linecap="round" stroke-linejoin="round"/>
</g>
<defs>
<filter id="filter0_d_563_706" x="-0.5" y="0" width="82" height="82" filterUnits="userSpaceOnUse" color-interpolation-filters="sRGB">
<feFlood flood-opacity="0" result="BackgroundImageFix"/>
<feColorMatrix in="SourceAlpha" type="matrix" values="0 0 0 0 0 0 0 0 0 0 0 0 0 0 0 0 0 0 127 0" result="hardAlpha"/>
<feOffset dy="4"/>
<feGaussianBlur stdDeviation="2"/>
<feComposite in2="hardAlpha" operator="out"/>
<feColorMatrix type="matrix" values="0 0 0 0 0 0 0 0 0 0 0 0 0 0 0 0 0 0 0.25 0"/>
<feBlend mode="normal" in2="BackgroundImageFix" result="effect1_dropShadow_563_706"/>
<feBlend mode="normal" in="SourceGraphic" in2="effect1_dropShadow_563_706" result="shape"/>
</filter>
</defs>
</svg>
