<svg width="87" height="86" viewBox="0 0 87 86" fill="none" xmlns="http://www.w3.org/2000/svg">
<path d="M57.6779 85.6524C52.0506 85.6524 46.8868 84.1382 42.1865 81.1099C37.4862 78.0787 34.0044 74.004 31.741 68.8857C31.4452 68.226 31.3116 67.5606 31.34 66.8895C31.3685 66.2185 31.6016 65.5887 32.0395 65.0001C32.4774 64.4114 32.9907 63.9593 33.5793 63.6437C34.1679 63.3281 34.8375 63.1717 35.5882 63.1745H64.272C64.3971 62.1764 64.4924 61.1499 64.5578 60.095C64.6203 59.0429 64.6516 57.9624 64.6516 56.8534C64.6516 55.952 64.6203 55.0407 64.5578 54.1194C64.4924 53.1981 64.39 52.2256 64.2507 51.202H60.2797C59.6741 51.202 59.1665 50.9972 58.757 50.5878C58.3504 50.1783 58.1471 49.6707 58.1471 49.0651C58.1471 48.4594 58.3504 47.9533 58.757 47.5466C59.1637 47.14 59.6712 46.9367 60.2797 46.9367H79.516C78.299 44.278 76.6469 41.9307 74.5598 39.8948C72.4698 37.8588 70.0884 36.2693 67.4155 35.1262C66.807 34.8703 66.3719 34.4381 66.1103 33.8296C65.8487 33.2239 65.8302 32.6609 66.0549 32.1406C66.2767 31.6202 66.6392 31.2292 67.1425 30.9676C67.6458 30.706 68.1406 30.6861 68.6268 30.9079C73.9754 33.1173 78.2322 36.6077 81.397 41.3791C84.5589 46.1505 86.1399 51.4209 86.1399 57.1904C86.1399 65.0953 83.3732 71.8159 77.8398 77.3522C72.3035 82.8857 65.5828 85.6524 57.6779 85.6524ZM52.4701 80.517C51.2616 78.3844 50.2436 76.2333 49.4161 74.0637C48.5858 71.8913 47.9404 69.6847 47.4797 67.444H35.9252C37.4606 70.8051 39.6715 73.6486 42.5576 75.9745C45.4438 78.3005 48.7479 79.8147 52.4701 80.517ZM57.6779 81.1099C59.185 78.9972 60.4063 76.7963 61.3418 74.5073C62.2744 72.2154 63.0081 69.861 63.5426 67.444H51.8132C52.3506 69.861 53.0757 72.214 53.9885 74.503C54.8984 76.7949 56.1282 79 57.6779 81.1099ZM62.8858 80.517C66.6108 79.8118 69.9291 78.2977 72.8409 75.9745C75.7526 73.6514 77.9762 70.8079 79.5117 67.444H67.8548C67.3373 69.6847 66.6819 71.8913 65.8885 74.0637C65.0952 76.2333 64.0943 78.3844 62.8858 80.517ZM68.5372 63.1788H81.1197C81.37 62.249 81.559 61.2822 81.687 60.2784C81.8121 59.2747 81.8747 58.2453 81.8747 57.1904C81.8747 56.1354 81.8121 55.1061 81.687 54.1023C81.5619 53.0986 81.3728 52.1318 81.1197 51.202H68.5372C68.6624 52.1204 68.7562 53.0659 68.8187 54.0384C68.8813 55.0051 68.9126 55.9492 68.9126 56.8705C68.9126 57.9453 68.8813 58.9974 68.8187 60.0268C68.7562 61.0504 68.6624 62.1011 68.5372 63.1788ZM29.3012 57.2714C21.3963 57.2714 14.6757 54.5047 9.1394 48.9712C3.60311 43.4378 0.834961 36.7186 0.834961 28.8137C0.834961 20.9088 3.60169 14.1881 9.13513 8.65185C14.6686 3.11556 21.3878 0.347412 29.2927 0.347412C37.1976 0.347412 43.9182 3.11414 49.4545 8.64759C54.9908 14.181 57.759 20.9002 57.759 28.8051C57.759 36.7101 54.9922 43.4307 49.4588 48.967C43.9253 54.5033 37.2062 57.2714 29.3012 57.2714ZM29.314 53.0062C35.9906 53.0062 41.6904 50.6404 46.4134 45.9088C51.1336 41.1772 53.4937 35.4717 53.4937 28.7924C53.4937 22.1158 51.1279 16.4174 46.3963 11.6972C41.6619 6.97419 35.9564 4.61266 29.2799 4.61266C22.6034 4.61266 16.9036 6.97845 12.1805 11.71C7.46031 16.4473 5.10021 22.1528 5.10021 28.8265C5.10021 35.5002 7.466 41.2 12.1976 45.9259C16.932 50.6461 22.6375 53.0062 29.314 53.0062ZM19.2054 25.8579C20.0328 25.8579 20.7594 25.5593 21.3849 24.9622C22.0105 24.365 22.3233 23.6257 22.3233 22.7442C22.3233 21.8627 22.0105 21.122 21.3849 20.522C20.7594 19.9221 20.02 19.6235 19.167 19.6263C18.3139 19.6292 17.5889 19.9277 16.9917 20.522C16.3917 21.1163 16.0918 21.8556 16.0918 22.74C16.0918 23.6243 16.3903 24.3636 16.9875 24.9579C17.5846 25.5522 18.3239 25.855 19.2054 25.8579ZM29.3396 43.3113C32.1234 43.3113 34.6698 42.6658 36.9787 41.3748C39.2876 40.0839 41.1572 38.3835 42.5875 36.2736L16.0107 36.1883C17.4382 38.3579 19.3205 40.0867 21.6579 41.3748C23.9953 42.6658 26.5587 43.3113 29.3396 43.3113ZM39.4696 25.8579C40.2942 25.8579 41.0193 25.5593 41.6449 24.9622C42.2704 24.365 42.5832 23.6257 42.5832 22.7442C42.5832 21.8627 42.2704 21.122 41.6449 20.522C41.0193 19.9221 40.28 19.6235 39.4269 19.6263C38.5739 19.6292 37.8488 19.9277 37.2517 20.522C36.6545 21.1163 36.3545 21.8556 36.3517 22.74C36.3488 23.6243 36.6474 24.3636 37.2474 24.9579C37.8474 25.5522 38.5867 25.8508 39.4653 25.8536" fill="#1F2226"/>
</svg>
