<svg width="64" height="64" viewBox="0 0 64 64" fill="none" xmlns="http://www.w3.org/2000/svg">
<g clip-path="url(#clip0_563_668)">
<path d="M54.8721 19.211L54.2263 20.6968C54.1254 20.9387 53.9552 21.1454 53.737 21.2907C53.5189 21.4361 53.2626 21.5137 53.0005 21.5137C52.7383 21.5137 52.482 21.4361 52.2639 21.2907C52.0458 21.1454 51.8755 20.9387 51.7746 20.6968L51.1288 19.211C49.9935 16.5827 47.9142 14.4753 45.3013 13.3048L43.309 12.4149C43.0673 12.3037 42.8625 12.1256 42.719 11.9015C42.5754 11.6775 42.4991 11.417 42.4991 11.151C42.4991 10.8849 42.5754 10.6244 42.719 10.4004C42.8625 10.1764 43.0673 9.99822 43.309 9.88703L45.1911 9.04965C47.8697 7.84578 49.9845 5.66047 51.1 2.94391L51.7667 1.34003C51.8643 1.09158 52.0344 0.878288 52.2549 0.727946C52.4755 0.577604 52.7362 0.497192 53.0031 0.497192C53.27 0.497192 53.5307 0.577604 53.7513 0.727946C53.9718 0.878288 54.1419 1.09158 54.2395 1.34003L54.9036 2.94128C56.0179 5.65836 58.1318 7.8446 60.8098 9.04965L62.6946 9.88966C62.9356 10.0012 63.1396 10.1793 63.2826 10.403C63.4256 10.6268 63.5016 10.8868 63.5016 11.1523C63.5016 11.4178 63.4256 11.6778 63.2826 11.9015C63.1396 12.1253 62.9356 12.3034 62.6946 12.4149L60.6996 13.3022C58.0872 14.4739 56.0089 16.5822 54.8747 19.211M24.1255 5.75003C29.225 5.74924 34.1506 7.60408 37.9829 10.9684C41.8153 14.3326 44.2925 18.9765 44.9522 24.0332L50.8585 33.323C51.247 33.9347 51.1682 34.8455 50.2678 35.234L45.1255 37.4338V45.125C45.1255 46.5174 44.5723 47.8528 43.5878 48.8373C42.6032 49.8219 41.2679 50.375 39.8755 50.375H34.6281L34.6255 58.25H11.0005V48.5533C11.0005 45.4558 9.85597 42.5237 7.73497 39.8777C5.26158 36.7894 3.71096 33.0652 3.26176 29.1342C2.81256 25.2031 3.48306 21.2251 5.196 17.6585C6.90895 14.0919 9.59464 11.0817 12.9437 8.97488C16.2927 6.86801 20.1688 5.75013 24.1255 5.75003ZM24.1255 11C21.1581 10.9999 18.2511 11.8381 15.7393 13.4179C13.2275 14.9978 11.2131 17.2551 9.9281 19.9298C8.64314 22.6045 8.13992 25.5878 8.4764 28.536C8.81288 31.4842 9.97538 34.2774 11.83 36.5938C14.7017 40.1743 16.2505 44.2509 16.2505 48.5533V53H29.3755L29.3807 45.125H39.8755V33.974L43.9442 32.231L39.8938 25.8654L39.7442 24.7052C39.2478 20.9142 37.3894 17.4332 34.5156 14.9115C31.6418 12.3898 27.9488 10.9995 24.1255 11ZM51.6617 45.1067L56.0297 48.0204C59.1984 43.2792 60.8852 37.7026 60.8755 32C60.8737 30.2063 60.7153 28.4563 60.4003 26.75L55.3 28.0625C55.5152 29.3453 55.6237 30.6578 55.6255 32C55.6333 36.6653 54.2536 41.2276 51.6617 45.1067Z" fill="#1F2226"/>
</g>
<defs>
<clipPath id="clip0_563_668">
<rect width="63" height="63" fill="white" transform="translate(0.5 0.5)"/>
</clipPath>
</defs>
</svg>
