<svg width="55" height="54" viewBox="0 0 55 54" fill="none" xmlns="http://www.w3.org/2000/svg">
<path d="M27.4997 34.7941C29.6597 34.7941 31.4997 33.9941 33.1263 32.4208C34.6997 30.7941 35.4997 28.9541 35.4997 26.7941C35.4997 24.6341 34.6997 22.7941 33.1263 21.1674C31.4997 19.5941 29.6597 18.7941 27.4997 18.7941C25.3397 18.7941 23.4997 19.5941 21.873 21.1674C20.2997 22.7941 19.4997 24.6341 19.4997 26.7941C19.4997 28.9541 20.2997 30.7941 21.873 32.4208C23.4997 33.9941 25.3397 34.7941 27.4997 34.7941ZM27.4997 0.127441C34.833 0.127441 41.0997 2.79411 46.2997 7.99411C51.4997 13.1941 54.1663 19.4608 54.1663 26.7941V30.6608C54.1663 33.3274 53.233 35.5941 51.4997 37.4608C49.633 39.2474 47.4997 40.1274 44.833 40.1274C41.633 40.1274 38.993 38.7941 36.993 36.1274C34.3263 38.7941 31.1797 40.1274 27.4997 40.1274C23.8463 40.1274 20.6997 38.7941 18.0597 36.2341C15.4997 33.5941 14.1663 30.4741 14.1663 26.7941C14.1663 23.1408 15.4997 19.9941 18.0597 17.3541C20.6997 14.7941 23.8463 13.4608 27.4997 13.4608C31.1797 13.4608 34.2997 14.7941 36.9397 17.3541C39.4997 19.9941 40.833 23.1408 40.833 26.7941V30.6608C40.833 31.7541 41.2597 32.7141 42.0597 33.5408C42.8597 34.3674 43.793 34.7941 44.833 34.7941C45.953 34.7941 46.8863 34.3674 47.6863 33.5408C48.4863 32.7141 48.833 31.7541 48.833 30.6608V26.7941C48.833 20.9541 46.7797 15.9408 42.5663 11.7274C38.353 7.51411 33.3397 5.46077 27.4997 5.46077C21.6597 5.46077 16.6463 7.51411 12.433 11.7274C8.21967 15.9408 6.16634 20.9541 6.16634 26.7941C6.16634 32.6341 8.21967 37.6474 12.433 41.8608C16.6463 46.0741 21.6597 48.1274 27.4997 48.1274H40.833V53.4608H27.4997C20.1663 53.4608 13.8997 50.7941 8.69967 45.5941C3.49967 40.3941 0.833008 34.1274 0.833008 26.7941C0.833008 19.4608 3.49967 13.1941 8.69967 7.99411C13.8997 2.79411 20.1663 0.127441 27.4997 0.127441Z" fill="#1F2226"/>
</svg>
