<svg width="58" height="58" viewBox="0 0 58 58" fill="none" xmlns="http://www.w3.org/2000/svg">
<path d="M29.4993 21.7941C34.654 21.7941 38.8327 17.6154 38.8327 12.4608C38.8327 7.30612 34.654 3.12744 29.4993 3.12744C24.3447 3.12744 20.166 7.30612 20.166 12.4608C20.166 17.6154 24.3447 21.7941 29.4993 21.7941Z" stroke="#1F2226" stroke-width="5" stroke-linecap="round" stroke-linejoin="round"/>
<path d="M2.83301 52.4608C2.83301 40.6781 13.5783 31.1274 26.833 31.1274" stroke="#1F2226" stroke-width="5" stroke-linecap="round" stroke-linejoin="round"/>
<path d="M42.833 55.1274C49.4604 55.1274 54.833 49.7549 54.833 43.1274C54.833 36.5 49.4604 31.1274 42.833 31.1274C36.2056 31.1274 30.833 36.5 30.833 43.1274C30.833 49.7549 36.2056 55.1274 42.833 55.1274Z" stroke="#1F2226" stroke-width="5"/>
<path d="M41.5 39.1274V44.4608H46.8333" stroke="#1F2226" stroke-width="5" stroke-linecap="round" stroke-linejoin="round"/>
</svg>
